<svg width="90" height="72" viewBox="0 0 90 72" fill="none" xmlns="http://www.w3.org/2000/svg">
<path d="M45 30C41.0218 30 37.2064 28.4196 34.3934 25.6066C31.5804 22.7936 30 18.9782 30 15C30 11.0218 31.5804 7.20644 34.3934 4.3934C37.2064 1.58035 41.0218 0 45 0C48.9782 0 52.7936 1.58035 55.6066 4.3934C58.4196 7.20644 60 11.0218 60 15C60 18.9782 58.4196 22.7936 55.6066 25.6066C52.7936 28.4196 48.9782 30 45 30ZM45 6C40.02 6 36 10.02 36 15C36 19.98 40.02 24 45 24C49.98 24 54 19.98 54 15C54 10.02 49.98 6 45 6Z" fill="#84F173"/>
<path d="M81 54C79.32 54 78 52.68 78 51C78 49.32 79.32 48 81 48C82.68 48 84 46.68 84 45C84 41.0218 82.4196 37.2064 79.6066 34.3934C76.7936 31.5804 72.9782 30 69 30H63C61.32 30 60 28.68 60 27C60 25.32 61.32 24 63 24C67.98 24 72 19.98 72 15C72 10.02 67.98 6 63 6C61.32 6 60 4.68 60 3C60 1.32 61.32 0 63 0C66.9782 0 70.7936 1.58035 73.6066 4.3934C76.4196 7.20644 78 11.0218 78 15C78 18.72 76.68 22.08 74.4 24.72C83.34 27.12 90 35.28 90 45C90 49.98 85.98 54 81 54ZM9 54C4.02 54 0 49.98 0 45C0 35.28 6.6 27.12 15.6 24.72C13.38 22.08 12 18.72 12 15C12 11.0218 13.5804 7.20644 16.3934 4.3934C19.2064 1.58035 23.0218 0 27 0C28.68 0 30 1.32 30 3C30 4.68 28.68 6 27 6C22.02 6 18 10.02 18 15C18 19.98 22.02 24 27 24C28.68 24 30 25.32 30 27C30 28.68 28.68 30 27 30H21C17.0218 30 13.2064 31.5804 10.3934 34.3934C7.58035 37.2064 6 41.0218 6 45C6 46.68 7.32 48 9 48C10.68 48 12 49.32 12 51C12 52.68 10.68 54 9 54ZM63 72H27C22.02 72 18 67.98 18 63V57C18 45.42 27.42 36 39 36H51C62.58 36 72 45.42 72 57V63C72 67.98 67.98 72 63 72ZM39 42C35.0218 42 31.2064 43.5804 28.3934 46.3934C25.5804 49.2064 24 53.0218 24 57V63C24 64.68 25.32 66 27 66H63C64.68 66 66 64.68 66 63V57C66 53.0218 64.4196 49.2064 61.6066 46.3934C58.7936 43.5804 54.9782 42 51 42H39Z" fill="#84F173"/>
</svg>
