<svg width="90" height="72" viewBox="0 0 90 72" fill="none" xmlns="http://www.w3.org/2000/svg">
<path d="M74.0194 44.6487C70.4234 46.8347 66.2934 47.9843 62.0852 47.9707C58.5597 47.9428 55.0741 47.2217 51.8269 45.8486C49.3242 49.3817 47.9848 53.607 47.995 57.9368V68.9939C47.9959 69.4051 47.9123 69.812 47.7493 70.1896C47.5863 70.5671 47.3474 70.907 47.0474 71.1883C46.7475 71.4696 46.393 71.6862 46.0058 71.8247C45.6186 71.9632 45.2071 72.0207 44.7968 71.9934C44.0258 71.9263 43.3087 71.5702 42.7893 70.9965C42.2699 70.4228 41.9865 69.674 41.996 68.9001V64.2358L27.516 49.7555C25.3634 50.5585 23.087 50.9786 20.7896 50.9965C17.6269 51.0044 14.5234 50.1389 11.8211 48.4957C3.65121 43.5314 -0.746806 32.1069 0.104302 17.9227C0.147155 17.1889 0.457968 16.4964 0.977732 15.9766C1.4975 15.4568 2.19002 15.146 2.92383 15.1031C17.1077 14.267 28.532 18.6501 33.4812 26.8201C35.4257 30.0225 36.2746 33.7709 35.8996 37.4985C35.8762 37.7874 35.7698 38.0632 35.593 38.2928C35.4162 38.5224 35.1767 38.6959 34.9035 38.7923C34.6302 38.8886 34.3349 38.9038 34.0532 38.8359C33.7716 38.768 33.5156 38.6199 33.3162 38.4097L26.1174 30.8733C25.5504 30.3345 24.7952 30.0386 24.0131 30.0486C23.2309 30.0586 22.4836 30.3738 21.9305 30.9269C21.3774 31.48 21.0622 32.2273 21.0522 33.0095C21.0422 33.7917 21.3381 34.5468 21.8769 35.1139L42.0785 55.8296C42.101 55.5371 42.1273 55.2447 42.1573 54.9559C42.8132 49.3946 45.2672 44.1995 49.1461 40.1607L68.1142 20.1161C68.677 19.5538 68.9934 18.7909 68.9937 17.9953C68.9941 17.1997 68.6784 16.4365 68.116 15.8736C67.5537 15.3108 66.7908 14.9944 65.9952 14.9941C65.1996 14.9937 64.4364 15.3094 63.8736 15.8718L45.5017 35.3014C45.3178 35.4962 45.0851 35.6381 44.8277 35.7126C44.5704 35.787 44.2978 35.7911 44.0384 35.7245C43.7789 35.6579 43.542 35.523 43.3523 35.3339C43.1626 35.1447 43.027 34.9082 42.9596 34.649C41.1824 28.095 41.966 21.5709 45.3592 15.9693C52.0556 4.91591 67.638 -1.00071 87.0447 0.139116C87.7785 0.18197 88.4711 0.49279 88.9908 1.01256C89.5106 1.53234 89.8214 2.22488 89.8643 2.9587C90.9891 22.3696 85.0726 37.9522 74.0194 44.6487Z" fill="#84F173"/>
</svg>
