<svg width="86" height="78" viewBox="0 0 86 78" fill="none" xmlns="http://www.w3.org/2000/svg">
<path d="M38.5258 47.3687H46.4205C48.5142 47.3687 50.5223 46.537 52.0028 45.0564C53.4833 43.5759 54.3151 41.5679 54.3151 39.4741C54.3151 37.3803 53.4833 35.3723 52.0028 33.8918C50.5223 32.4112 48.5142 31.5795 46.4205 31.5795H34.5785C32.2101 31.5795 30.2365 32.3689 29.0523 33.9479L6.9473 55.2634" stroke="#84F173" stroke-width="6" stroke-linecap="round" stroke-linejoin="round"/>
<path d="M22.7366 71.0527L29.0523 65.5265C30.2365 63.9475 32.2101 63.1581 34.5785 63.1581H50.3678C54.7098 63.1581 58.6571 61.5791 61.4203 58.4213L79.5779 41.0531C81.1011 39.6136 81.9902 37.628 82.0494 35.5331C82.1086 33.4381 81.3332 31.4054 79.8937 29.8822C78.4542 28.359 76.4686 27.47 74.3736 27.4108C72.2787 27.3515 70.246 28.127 68.7228 29.5664L52.1441 44.961M3 51.3161L26.6839 75" stroke="#84F173" stroke-width="6" stroke-linecap="round" stroke-linejoin="round"/>
<path d="M72.078 25.6585C74.8411 22.8954 77.999 19.3428 77.999 15.0008C78.2749 12.5887 77.7282 10.1541 76.4474 8.09153C75.1667 6.02899 73.227 4.45936 70.9427 3.63701C68.6584 2.81466 66.1633 2.78777 63.8618 3.56071C61.5603 4.33366 59.5873 5.86113 58.2624 7.8956C56.8533 6.01898 54.8797 4.64351 52.6314 3.97111C50.383 3.29872 47.9783 3.36482 45.7703 4.15971C43.5622 4.9546 41.6672 6.43641 40.3633 8.38761C39.0594 10.3388 38.4154 12.6566 38.5258 15.0008C38.5258 19.7375 41.6837 22.8954 44.4468 26.0533L58.2624 39.4741L72.078 25.6585Z" stroke="#84F173" stroke-width="6" stroke-linecap="round" stroke-linejoin="round"/>
</svg>
