<svg width="102" height="72" viewBox="0 0 102 72" fill="none" xmlns="http://www.w3.org/2000/svg">
<path d="M32.64 26.7429C30.9506 24.4768 27.7472 24.0107 25.5 25.7143C23.2528 27.4179 22.7906 30.6482 24.48 32.9143L30.5522 41.0786C31.3172 42.1071 31.2056 43.5375 30.3131 44.4375L28.2731 46.4946C27.2053 47.5714 25.4681 47.4911 24.5119 46.3179L10.2 28.9929V5.14286C10.2 2.29821 7.92094 0 5.1 0C2.27906 0 0 2.29821 0 5.14286V40.2429C0 41.9946 0.589687 43.6982 1.67344 45.0643L18.2644 66.6482C19.0612 67.6929 19.6031 68.8821 19.9219 70.1357C20.2087 71.2446 21.2128 72 22.3603 72H43.35C44.7525 72 45.9 70.8429 45.9 69.4286V51.4286C45.9 46.9768 44.4656 42.6536 41.82 39.0857L32.64 26.7429ZM96.9 0C94.0791 0 91.8 2.29821 91.8 5.14286V28.9929L77.4881 46.3179C76.5319 47.475 74.7787 47.5554 73.7269 46.4946L71.6869 44.4375C70.7944 43.5375 70.6828 42.1071 71.4478 41.0786L77.52 32.9143C79.2094 30.6482 78.7472 27.4179 76.5 25.7143C74.2528 24.0107 71.0494 24.4768 69.36 26.7429L60.18 39.0857C57.5344 42.6536 56.1 46.9768 56.1 51.4286V69.4286C56.1 70.8429 57.2475 72 58.65 72H79.6397C80.7712 72 81.7913 71.2446 82.0781 70.1357C82.3969 68.8821 82.9388 67.6929 83.7356 66.6482L100.327 45.0643C101.41 43.6982 102 41.9946 102 40.2429V5.14286C102 2.29821 99.7209 0 96.9 0Z" fill="#84F173"/>
</svg>
