<svg width="100" height="100" viewBox="0 0 100 100" fill="none" xmlns="http://www.w3.org/2000/svg">
<path fill-rule="evenodd" clip-rule="evenodd" d="M50 90.9091C55.3723 90.9091 60.6919 89.851 65.6552 87.7951C70.6186 85.7392 75.1283 82.7259 78.9271 78.9271C82.7259 75.1283 85.7392 70.6186 87.7951 65.6552C89.851 60.6919 90.9091 55.3723 90.9091 50C90.9091 44.6277 89.851 39.3081 87.7951 34.3448C85.7392 29.3814 82.7259 24.8717 78.9271 21.0729C75.1283 17.2741 70.6186 14.2608 65.6552 12.2049C60.6919 10.1491 55.3723 9.09091 50 9.09091C39.1502 9.09091 28.7448 13.401 21.0729 21.0729C13.401 28.7448 9.09091 39.1502 9.09091 50C9.09091 60.8498 13.401 71.2551 21.0729 78.9271C28.7448 86.599 39.1502 90.9091 50 90.9091ZM50 100C77.6136 100 100 77.6136 100 50C100 22.3864 77.6136 0 50 0C22.3864 0 0 22.3864 0 50C0 77.6136 22.3864 100 50 100Z" fill="#E2E2E2"/>
<path d="M68.1818 50.0003L40.9091 69.6821V30.3185L68.1818 50.0003Z" fill="#E2E2E2"/>
</svg>
