<svg width="46" height="32" viewBox="0 0 46 32" fill="none" xmlns="http://www.w3.org/2000/svg">
<path d="M18.4 22.8571L30.337 16L18.4 9.14286V22.8571ZM44.988 4.96C45.287 6.03429 45.494 7.47429 45.632 9.30286C45.793 11.1314 45.862 12.7086 45.862 14.08L46 16C46 21.0057 45.632 24.6857 44.988 27.04C44.413 29.0971 43.079 30.4229 41.009 30.9943C39.928 31.2914 37.95 31.4971 34.914 31.6343C31.924 31.7943 29.187 31.8629 26.657 31.8629L23 32C13.363 32 7.36 31.6343 4.991 30.9943C2.921 30.4229 1.587 29.0971 1.012 27.04C0.713 25.9657 0.506 24.5257 0.368 22.6971C0.207 20.8686 0.138 19.2914 0.138 17.92L0 16C0 10.9943 0.368 7.31429 1.012 4.96C1.587 2.90286 2.921 1.57714 4.991 1.00571C6.072 0.708572 8.05 0.502857 11.086 0.365714C14.076 0.205714 16.813 0.137143 19.343 0.137143L23 0C32.637 0 38.64 0.365714 41.009 1.00571C43.079 1.57714 44.413 2.90286 44.988 4.96Z" fill="#B4B4B4"/>
</svg>
